<?xml version="1.0" standalone="no"?>
<!DOCTYPE svg PUBLIC "-//W3C//DTD SVG 20010904//EN"
 "http://www.w3.org/TR/2001/REC-SVG-20010904/DTD/svg10.dtd">
<svg version="1.0" xmlns="http://www.w3.org/2000/svg"
 width="700.000000pt" height="700.000000pt" viewBox="0 0 700.000000 700.000000"
 preserveAspectRatio="xMidYMid meet">
<metadata>
Created by potrace 1.14, written by Peter Selinger 2001-2017
</metadata>
<g transform="translate(0.000000,700.000000) scale(0.100000,-0.100000)"
fill="#000000" stroke="none">
<path d="M440 5465 l0 -1095 1093 2 1092 3 3 1093 2 1092 -1095 0 -1095 0 0
-1095z m1750 0 l0 -655 -655 0 -655 0 0 655 0 655 655 0 655 0 0 -655z"/>
<path d="M1310 5470 l0 -220 220 0 220 0 0 220 0 220 -220 0 -220 0 0 -220z"/>
<path d="M3060 5905 l0 -655 220 0 220 0 0 -220 0 -220 -220 0 -220 0 0 -435
0 -435 220 0 220 0 0 -220 0 -220 -655 0 -655 0 0 220 0 220 -440 0 -440 0 0
-220 0 -220 -215 0 -215 0 -2 218 -3 217 -218 3 -217 2 0 -220 0 -220 215 0
215 0 2 -217 3 -218 217 -3 218 -2 0 220 0 220 220 0 220 0 0 -220 0 -220 655
0 655 0 2 -217 3 -218 218 -3 217 -2 0 -215 0 -215 -220 0 -220 0 2 -657 3
-658 218 -3 217 -2 0 -215 0 -215 875 0 875 0 0 435 0 435 438 2 437 3 3 218
2 217 215 0 215 0 0 220 0 220 -217 -2 -218 -3 -3 -217 -2 -218 -215 0 -215 0
0 220 0 220 220 0 221 0 -1 218 c0 119 -1 315 0 435 l0 217 215 0 215 0 0 440
0 440 -217 -2 -218 -3 -3 -217 -2 -218 -215 0 -215 0 0 -435 0 -435 -657 -2
-658 -3 -3 -217 -2 -218 440 0 440 0 0 -440 0 -440 -220 0 -220 0 0 220 0 220
-215 0 -215 0 -2 218 -3 217 -217 3 -218 2 -2 218 -3 217 -217 3 -218 2 0 435
0 435 220 0 220 0 0 220 0 220 -220 0 -220 0 0 215 0 215 218 2 217 3 3 658 2
657 -220 0 -220 0 0 215 0 215 218 2 217 3 3 218 2 217 -440 0 -440 0 0 -655z
m880 -3935 l0 -220 215 0 215 0 2 -217 3 -218 218 -3 217 -2 0 -215 0 -215
-655 0 -655 0 0 215 0 215 220 0 220 0 0 220 0 220 -220 0 -220 0 0 220 0 220
220 0 220 0 0 -220z"/>
<path d="M4372 5468 l3 -1093 1093 -3 1092 -2 0 1095 0 1095 -1095 0 -1095 0
2 -1092z m1748 -3 l0 -655 -655 0 -655 0 0 655 0 655 655 0 655 0 0 -655z"/>
<path d="M5250 5470 l0 -220 220 0 220 0 0 220 0 220 -220 0 -220 0 0 -220z"/>
<path d="M4377 3933 c-4 -3 -7 -102 -7 -220 l0 -213 220 0 220 0 0 -220 0
-220 220 0 220 0 0 440 0 440 -433 0 c-239 0 -437 -3 -440 -7z"/>
<path d="M3940 2840 l0 -220 218 2 217 3 3 218 2 217 -220 0 -220 0 0 -220z"/>
<path d="M440 1535 l0 -1095 1095 0 1095 0 -2 1093 -3 1092 -1092 3 -1093 2 0
-1095z m1750 0 l0 -655 -655 0 -655 0 0 655 0 655 655 0 655 0 0 -655z"/>
<path d="M1310 1530 l0 -220 220 0 220 0 0 220 0 220 -220 0 -220 0 0 -220z"/>
<path d="M6122 1093 l3 -218 218 -3 217 -2 0 220 0 220 -220 0 -220 0 2 -217z"/>
<path d="M5690 660 l0 -220 220 0 220 0 -2 218 -3 217 -217 3 -218 2 0 -220z"/>
</g>
</svg>
